HIERARCHY
ROOT Hips
{
	OFFSET 0.000000 0.000000 0.000000
	CHANNELS 6 Xposition Yposition Zposition Zrotation Yrotation Xrotation 
	JOINT LowerBack
	{
		OFFSET 0.000000 0.000000 0.000000
		CHANNELS 3 Zrotation Yrotation Xrotation
		JOINT Spine
		{
			OFFSET 0.028270 2.035590 -0.193380
			CHANNELS 3 Zrotation Yrotation Xrotation
			JOINT Spine1
			{
				OFFSET 0.056720 2.048850 -0.042750
				CHANNELS 3 Zrotation Yrotation Xrotation
				JOINT Neck
				{
					OFFSET 0.000000 0.000000 0.000000
					CHANNELS 3 Zrotation Yrotation Xrotation
					JOINT Neck1
					{
						OFFSET -0.054170 1.746240 0.172020
						CHANNELS 3 Zrotation Yrotation Xrotation
						JOINT Head
						{
							OFFSET 0.104070 1.761360 -0.123970
							CHANNELS 3 Zrotation Yrotation Xrotation
							End Site
							{
								OFFSET 0.000000 0.000000 0.000000
							}
						}
					}
				}
				JOINT LeftShoulder
				{
					OFFSET 0.000000 0.000000 0.000000
					CHANNELS 3 Zrotation Yrotation Xrotation
					JOINT LeftArm
					{
						OFFSET 3.362410 1.200890 -0.311210
						CHANNELS 3 Zrotation Yrotation Xrotation
						JOINT LeftForeArm
						{
							OFFSET 4.983000 -0.000000 -0.000000
							CHANNELS 3 Zrotation Yrotation Xrotation
							JOINT LeftHand
							{
								OFFSET 3.483560 -0.000000 -0.000000
								CHANNELS 3 Zrotation Yrotation Xrotation
								JOINT LeftFingerBase
								{
									OFFSET 0.000000 0.000000 0.000000
									CHANNELS 3 Zrotation Yrotation Xrotation
									JOINT LeftHandIndex1
									{
										OFFSET 0.715260 -0.000000 -0.000000
										CHANNELS 3 Zrotation Yrotation Xrotation
										End Site
										{
											OFFSET 0.000000 0.000000 0.000000
										}
									}
								}
								JOINT LThumb
								{
									OFFSET 0.000000 0.000000 0.000000
									CHANNELS 3 Zrotation Yrotation Xrotation
									End Site
									{
										OFFSET 0.000000 0.000000 0.000000
									}
								}
							}
						}
					}
				}
				JOINT RightShoulder
				{
					OFFSET 0.000000 0.000000 0.000000
					CHANNELS 3 Zrotation Yrotation Xrotation
					JOINT RightArm
					{
						OFFSET -3.136600 1.374050 -0.404650
						CHANNELS 3 Zrotation Yrotation Xrotation
						JOINT RightForeArm
						{
							OFFSET -5.241900 -0.000000 -0.000000
							CHANNELS 3 Zrotation Yrotation Xrotation
							JOINT RightHand
							{
								OFFSET -3.444170 -0.000000 -0.000000
								CHANNELS 3 Zrotation Yrotation Xrotation
								JOINT RightFingerBase
								{
									OFFSET 0.000000 0.000000 0.000000
									CHANNELS 3 Zrotation Yrotation Xrotation
									JOINT RightHandIndex1
									{
										OFFSET -0.622530 -0.000000 -0.000000
										CHANNELS 3 Zrotation Yrotation Xrotation
										End Site
										{
											OFFSET 0.000000 0.000000 0.000000
										}
									}
								}
								JOINT RThumb
								{
									OFFSET 0.000000 0.000000 0.000000
									CHANNELS 3 Zrotation Yrotation Xrotation
									End Site
									{
										OFFSET 0.000000 0.000000 0.000000
									}
								}
							}
						}
					}
				}
			}
		}
	}
}
}
MOTION
Frames: 7
Frame Time: 0.008333
-10.856415 16.531214 -0.321023 -18.128943 74.699435 -1.447897 -5.048603 1.024922 2.491027 -1.730329 1.343261 -2.303954 -5.619462 1.313229 1.526195 7.867736 -4.702536 -6.341509 -2.513940 -0.202191 0.218181 0.000000 0.000000 0.000000 -7.537088 15.978339 1.777032 -63.851397 20.509894 7.803931 -4.165502 -25.913772 -0.024978 -10.038374 3.915496 -0.351411 -0.075273 -0.110546 -0.000000 0.000000 0.000000 0.000000 0.000000 0.000000 0.000000 9.802272 0.044377 1.146483 40.473919 22.215142 15.513012 1.100254 69.226480 0.033431 12.227129 7.996496 0.895834 -0.144609 -0.256096 0.000000 0.000000 0.000000 0.000000 0.000000 0.000000 0.000000 
-10.665343 16.534809 -0.337607 -16.849569 74.811732 -0.320584 -5.579621 0.922660 2.561599 -1.850588 1.264596 -2.308430 -5.724721 1.234875 1.474225 7.985641 -4.698566 -6.263771 -2.589445 -0.208468 0.234354 0.000000 0.000000 0.000000 -7.540021 15.560213 1.821600 -64.134059 19.582480 6.853181 -4.206282 -24.638601 -0.024108 -9.801172 4.133983 -0.361100 -0.077884 -0.105429 -0.000000 0.000000 0.000000 0.000000 0.000000 0.000000 0.000000 10.149563 0.001874 1.069042 41.765074 21.480901 15.395668 1.132094 69.001008 0.033586 12.146417 7.996487 0.889566 -0.139809 -0.255014 -0.000000 0.000000 0.000000 0.000000 0.000000 0.000000 0.000000 
-10.478209 16.540895 -0.356866 -15.623687 74.979766 0.764940 -6.046283 0.819071 2.645046 -1.955955 1.181796 -2.310168 -5.820773 1.152254 1.417827 8.041444 -4.690655 -6.167707 -2.661835 -0.214698 0.255369 0.000000 0.000000 0.000000 -7.532461 15.092233 1.864449 -64.387716 18.591362 5.987432 -4.239052 -23.474337 -0.023100 -9.549603 4.332150 -0.367585 -0.080116 -0.099640 -0.000000 0.000000 0.000000 0.000000 0.000000 0.000000 0.000000 10.417238 -0.049254 0.983772 43.123256 20.682798 15.258552 1.166626 68.696388 0.033645 12.077852 7.987303 0.883097 -0.135174 -0.253210 0.000000 0.000000 0.000000 0.000000 0.000000 0.000000 0.000000 
-10.294860 16.549358 -0.378634 -14.437001 75.198297 1.821185 -6.451108 0.713828 2.740135 -2.047170 1.094723 -2.305694 -5.907310 1.065630 1.370945 8.045953 -4.708966 -6.069811 -2.730859 -0.220633 0.276636 0.000000 0.000000 0.000000 -7.505774 14.625819 1.901564 -64.609740 17.497739 5.249712 -4.263110 -22.439598 -0.021944 -9.285512 4.496536 -0.369964 -0.081910 -0.093239 -0.000000 0.000000 0.000000 0.000000 0.000000 0.000000 0.000000 10.628847 -0.141010 0.892326 44.509502 19.886352 15.130402 1.204321 68.291053 0.033550 12.004619 7.975619 0.875926 -0.130518 -0.250705 0.000000 0.000000 0.000000 0.000000 0.000000 0.000000 0.000000 
-10.115060 16.560195 -0.403207 -13.366738 75.455686 2.769995 -6.769522 0.610436 2.844053 -2.119618 1.005836 -2.297815 -5.985230 0.977238 1.325564 7.996721 -4.723460 -5.963245 -2.795770 -0.226313 0.300283 0.000000 0.000000 0.000000 -7.472131 14.156387 1.934085 -64.796619 16.346982 4.641209 -4.277988 -21.598870 -0.020685 -9.016689 4.620917 -0.368238 -0.083257 -0.086450 -0.000000 0.000000 0.000000 0.000000 0.000000 0.000000 0.000000 10.770035 -0.238487 0.795765 45.932122 19.047625 14.984495 1.245152 67.792335 0.033338 11.950479 7.951824 0.868856 -0.126183 -0.247317 0.000000 0.000000 0.000000 0.000000 0.000000 0.000000 0.000000 
-9.938483 16.573580 -0.430252 -12.402413 75.745210 3.618386 -7.009384 0.508256 2.956462 -2.175307 0.914923 -2.283953 -6.055902 0.887204 1.292162 7.910128 -4.758691 -5.862581 -2.857357 -0.231596 0.322215 0.000000 0.000000 0.000000 -7.428190 13.723218 1.958593 -64.944297 15.119668 4.188658 -4.283843 -20.979664 -0.019341 -8.747348 4.696746 -0.362308 -0.084170 -0.079424 -0.000000 0.000000 0.000000 0.000000 0.000000 0.000000 0.000000 10.872539 -0.366914 0.697528 47.352796 18.223751 14.847331 1.290100 67.182822 0.032972 11.899604 7.923658 0.861381 -0.121894 -0.243101 0.000000 0.000000 0.000000 0.000000 0.000000 0.000000 0.000000 
-9.764824 16.589749 -0.459731 -11.598594 76.055505 4.310000 -7.160488 0.409518 3.074832 -2.212660 0.823747 -2.266145 -6.121354 0.797148 1.265788 7.792405 -4.795109 -5.765441 -2.915890 -0.236534 0.343212 0.000000 0.000000 0.000000 -7.381572 13.327728 1.976146 -65.049266 13.848117 3.891806 -4.281168 -20.630101 -0.017948 -8.483855 4.719920 -0.352369 -0.084720 -0.072361 -0.000000 0.000000 0.000000 0.000000 0.000000 0.000000 0.000000 10.939260 -0.502457 0.599848 48.768204 17.391323 14.700274 1.339438 66.467203 0.032483 11.865355 7.885801 0.854105 -0.117792 -0.237981 0.000000 0.000000 0.000000 0.000000 0.000000 0.000000 0.000000 
